<mxfile host="app.diagrams.net" modified="2020-08-02T06:19:10.261Z" agent="5.0 (X11)" etag="KUwM_42CmAhj67flvuIM" version="13.5.5" type="github">
  <diagram id="ZYf_PVoNdOq3cqknjMwv" name="Page-1">
    <mxGraphModel dx="1141" dy="1034" grid="1" gridSize="10" guides="1" tooltips="1" connect="1" arrows="1" fold="1" page="1" pageScale="1" pageWidth="850" pageHeight="1100" math="0" shadow="0">
      <root>
        <mxCell id="0" />
        <mxCell id="1" parent="0" />
        <mxCell id="fVG7iG_rJsYv7wUMt9iN-1" value="" style="shape=cylinder2;whiteSpace=wrap;html=1;boundedLbl=1;backgroundOutline=1;size=15;" parent="1" vertex="1">
          <mxGeometry x="90" y="300" width="60" height="80" as="geometry" />
        </mxCell>
        <mxCell id="fVG7iG_rJsYv7wUMt9iN-2" value="" style="shape=cylinder2;whiteSpace=wrap;html=1;boundedLbl=1;backgroundOutline=1;size=15;" parent="1" vertex="1">
          <mxGeometry x="290" y="450" width="60" height="80" as="geometry" />
        </mxCell>
        <mxCell id="fVG7iG_rJsYv7wUMt9iN-3" value="Label" style="endArrow=classic;html=1;" parent="1" source="fVG7iG_rJsYv7wUMt9iN-1" target="fVG7iG_rJsYv7wUMt9iN-2" edge="1">
          <mxGeometry relative="1" as="geometry">
            <mxPoint x="340" y="540" as="sourcePoint" />
            <mxPoint x="500" y="540" as="targetPoint" />
          </mxGeometry>
        </mxCell>
        <mxCell id="fVG7iG_rJsYv7wUMt9iN-4" value="Label" style="edgeLabel;resizable=0;html=1;align=center;verticalAlign=middle;" parent="fVG7iG_rJsYv7wUMt9iN-3" connectable="0" vertex="1">
          <mxGeometry relative="1" as="geometry" />
        </mxCell>
        <mxCell id="fVG7iG_rJsYv7wUMt9iN-5" value="Source" style="edgeLabel;resizable=0;html=1;align=left;verticalAlign=bottom;" parent="fVG7iG_rJsYv7wUMt9iN-3" connectable="0" vertex="1">
          <mxGeometry x="-1" relative="1" as="geometry" />
        </mxCell>
        <mxCell id="fVG7iG_rJsYv7wUMt9iN-6" value="Target" style="edgeLabel;resizable=0;html=1;align=right;verticalAlign=bottom;" parent="fVG7iG_rJsYv7wUMt9iN-3" connectable="0" vertex="1">
          <mxGeometry x="1" relative="1" as="geometry" />
        </mxCell>
        <mxCell id="E1jqSdFXgTEgA6t2SXgY-1" value="" style="verticalLabelPosition=bottom;shadow=0;dashed=0;align=center;html=1;verticalAlign=top;shape=mxgraph.electrical.logic_gates.logic_gate;operation=and;" vertex="1" parent="1">
          <mxGeometry x="240" y="570" width="100" height="60" as="geometry" />
        </mxCell>
      </root>
    </mxGraphModel>
  </diagram>
</mxfile>
